<svg xmlns="http://www.w3.org/2000/svg" width="12.816" height="11.513" viewBox="0 0 12.816 11.513"><defs><style>.a{fill:#f9f9f9;}</style></defs><path class="a" d="M2.187,11.327A3.024,3.024,0,0,1,.212,10.05,1.621,1.621,0,0,1,0,9.248a2.023,2.023,0,0,1,.2-.864,3.708,3.708,0,0,1,3.4-1.851h.044a1.338,1.338,0,0,1-.183-.677A1.351,1.351,0,0,1,3.514,5.5,2.733,2.733,0,0,1,.734,2.76,2.919,2.919,0,0,1,2.84.194,3.419,3.419,0,0,1,3.961,0h3.4a.27.27,0,0,1,.255.184.265.265,0,0,1-.1.3l-.761.552a.266.266,0,0,1-.157.049H6.327a2.641,2.641,0,0,1,.558,1.7A2.539,2.539,0,0,1,5.823,4.768c-.531.412-.551.525-.551.762a2.272,2.272,0,0,0,.783.839A2.631,2.631,0,0,1,7.356,8.8a2.77,2.77,0,0,1-2.219,2.529,4.942,4.942,0,0,1-1.389.188A6.355,6.355,0,0,1,2.187,11.327ZM1.762,8.884A1.783,1.783,0,0,0,3.74,10.435c1.464,0,2.207-.505,2.207-1.5a1.213,1.213,0,0,0-.035-.289c-.1-.387-.453-.627-.988-.993L4.694,7.5a2.644,2.644,0,0,0-.73-.112H3.932C2.775,7.384,1.762,8.085,1.762,8.884ZM2.814,1.331a1.757,1.757,0,0,0-.325,1.387c.132,1.006.867,1.877,1.6,1.9H4.1A.888.888,0,0,0,4.8,4.3a1.827,1.827,0,0,0,.335-1.419,2.008,2.008,0,0,0-1.6-1.866H3.5A.893.893,0,0,0,2.814,1.331ZM9.8,7.96a.265.265,0,0,1-.267-.266V5.76H7.6a.269.269,0,0,1-.269-.267V4.942A.269.269,0,0,1,7.6,4.676H9.531V2.743A.267.267,0,0,1,9.8,2.476h.551a.268.268,0,0,1,.267.267V4.676h1.932a.268.268,0,0,1,.267.268v.55a.267.267,0,0,1-.267.268H10.616V7.694a.266.266,0,0,1-.267.266Z"/></svg>