<svg id="Capa_1" enable-background="new 0 0 512 512" height="512" viewBox="0 0 512 512" width="512" xmlns="http://www.w3.org/2000/svg"><g><g><g><g><g><path d="m348.576 151.304c-4.268 0-7.726-3.459-7.726-7.726v-87.972c0-17.075-13.891-30.967-30.967-30.967h-107.766c-17.075 0-30.967 13.892-30.967 30.967v87.972c0 4.267-3.459 7.726-7.726 7.726s-7.726-3.459-7.726-7.726v-87.972c0-25.596 20.824-46.42 46.42-46.42h107.767c25.596 0 46.42 20.824 46.42 46.42v87.972c-.002 4.267-3.461 7.726-7.729 7.726z" fill="#ac80dd"/></g><path d="m464.097 443.96c0-.111.029-272.785-.073-288.802-3.527-.659-7.16-1.02-10.878-1.02h-416.158c-20.428 0-36.988 16.56-36.988 36.988v252.834c0 32.504 26.35 58.854 58.854 58.854h346.389c32.504 0 58.854-26.35 58.854-58.854z" fill="#e7a561"/><path d="m459.337 302.322 4.761-2.869c-.006-71.908-.027-143.904-.082-145.025-.022-.451-.058-.899-.09-1.347-3.496-.648-7.095-1.003-10.779-1.003h-416.159c-20.428 0-36.988 16.56-36.988 36.987v48.961c0 20.205 10.581 38.935 27.886 49.364l24.777 14.932c11.007 6.633 23.614 10.138 36.465 10.138h68.711c6.236 0 11.852 3.494 14.912 8.927 5.536 9.83 16.07 16.484 28.132 16.484h110.233c12.063 0 22.597-6.654 28.133-16.484 3.06-5.434 8.676-8.927 14.912-8.927h68.711c12.851 0 25.458-3.505 36.465-10.138z" fill="#e49542"/><path d="m459.337 281.718 4.759-2.868c-.008-64.447-.03-123.41-.08-124.423-1.116-22.693-15.084-41.996-34.78-50.804h-370.382c-32.504 0-58.854 26.35-58.854 58.854v54.945c0 20.205 10.581 38.935 27.886 49.364l24.777 14.932c11.007 6.633 23.614 10.138 36.464 10.138h333.744c12.852 0 25.459-3.505 36.466-10.138z" fill="#e28424"/><path d="m484.114 253.737c-23.109 13.828-24.651 15.029-28.765 17.159-.003.001-.006.003-.008.004v173.06c0 32.504-26.35 58.854-58.854 58.854h56.66c32.504 0 58.854-26.35 58.854-58.854v-230.968c0-1.437-.069-2.858-.171-4.269-1.399 18.515-11.66 35.338-27.716 45.014z" fill="#e49542"/><path d="m453.146 103.623h-32.667c20.54 9.185 34.861 29.783 34.861 53.739v126.587c1.353-.7 2.687-1.442 3.997-2.231l24.777-14.932c17.305-10.429 27.886-29.159 27.886-49.364v-54.945c0-32.504-26.35-58.854-58.854-58.854z" fill="#df751c"/></g></g><path d="m311.117 320.873h-110.234c-8.151 0-14.759-6.608-14.759-14.759v-31.469c0-8.151 6.608-14.759 14.759-14.759h110.233c8.151 0 14.759 6.608 14.759 14.759v31.469c.001 8.151-6.607 14.759-14.758 14.759z" fill="#ffd064"/><path d="m311.117 259.885h-52.512c5.86 0 10.611 4.751 10.611 10.611v39.765c0 5.86-4.751 10.611-10.611 10.611h52.512c8.151 0 14.759-6.608 14.759-14.759v-31.469c0-8.151-6.608-14.759-14.759-14.759z" fill="#ffc250"/></g></g></svg>