<svg xmlns="http://www.w3.org/2000/svg" width="12.674" height="10.299" viewBox="0 0 12.674 10.299"><defs><style>.a{fill:#f9f9f9;}</style></defs><path class="a" d="M12.674,1.219a5.156,5.156,0,0,1-1.493.409A2.606,2.606,0,0,0,12.325.19a5.228,5.228,0,0,1-1.651.632A2.6,2.6,0,0,0,6.175,2.6a2.663,2.663,0,0,0,.068.593A7.374,7.374,0,0,1,.884.475a2.6,2.6,0,0,0,.8,3.472A2.59,2.59,0,0,1,.51,3.62v.034A2.6,2.6,0,0,0,2.6,6.2a2.606,2.606,0,0,1-.685.091,2.529,2.529,0,0,1-.488-.047A2.6,2.6,0,0,0,3.849,8.054,5.211,5.211,0,0,1,.622,9.167,5.292,5.292,0,0,1,0,9.13,7.373,7.373,0,0,0,3.986,10.3a7.348,7.348,0,0,0,7.4-7.4q0-.169-.008-.337A5.274,5.274,0,0,0,12.674,1.219Z"/></svg>