<svg xmlns="http://www.w3.org/2000/svg" width="12.618" height="12.344" viewBox="0 0 12.618 12.344"><defs><style>.a{fill:#f9f9f9;}</style></defs><path class="a" d="M2.305,12.342A2.306,2.306,0,0,1,0,10.038V8.184A2.307,2.307,0,0,1,2.306,5.879h8.008a2.305,2.305,0,0,1,2.3,2.306v1.853a2.305,2.305,0,0,1-2.3,2.3ZM9.014,8.01a.9.9,0,0,0-.272.677v1.435a1.019,1.019,0,0,0,.246.723.879.879,0,0,0,.677.263.946.946,0,0,0,.715-.246,1.025,1.025,0,0,0,.241-.74V9.958H9.964V10.1a.676.676,0,0,1-.063.364.264.264,0,0,1-.222.084.238.238,0,0,1-.216-.1A.684.684,0,0,1,9.4,10.1V9.5h1.219V8.688a.955.955,0,0,0-.234-.7.9.9,0,0,0-.675-.243A.959.959,0,0,0,9.014,8.01ZM4.267,10.5a.678.678,0,0,0,.114.427.394.394,0,0,0,.332.143.783.783,0,0,0,.372-.1,1.373,1.373,0,0,0,.368-.294v.349h.638V7.827H5.453v2.427a.855.855,0,0,1-.2.173.362.362,0,0,1-.178.066.149.149,0,0,1-.13-.053.258.258,0,0,1-.042-.162V7.827H4.268Zm3.222.495a.753.753,0,0,0,.335.07.524.524,0,0,0,.432-.182.791.791,0,0,0,.15-.519V8.59a.956.956,0,0,0-.158-.6.555.555,0,0,0-.464-.2.624.624,0,0,0-.294.076.935.935,0,0,0-.273.22V6.693H6.571v4.328h.646v-.246A.8.8,0,0,0,7.49,10.993ZM1.782,7.322h.743v3.7h.719v-3.7h.744V6.693H1.782Zm5.585,3.206a.543.543,0,0,1-.15-.114V8.425a.45.45,0,0,1,.131-.1A.31.31,0,0,1,7.483,8.3a.248.248,0,0,1,.2.083.383.383,0,0,1,.066.247v1.65a.351.351,0,0,1-.055.22.2.2,0,0,1-.171.067A.373.373,0,0,1,7.366,10.528ZM9.4,9V8.682A.462.462,0,0,1,9.466,8.4a.253.253,0,0,1,.218-.089A.247.247,0,0,1,9.9,8.4a.472.472,0,0,1,.067.285v.323ZM5.446,4.594a.936.936,0,0,1-.283-.715V2.055a.8.8,0,0,1,.29-.65,1.187,1.187,0,0,1,.779-.242,1.05,1.05,0,0,1,.733.257.847.847,0,0,1,.285.658V3.894a.919.919,0,0,1-.279.708,1.1,1.1,0,0,1-.771.257A1.059,1.059,0,0,1,5.446,4.594Zm.538-2.75a.243.243,0,0,0-.081.185V3.947a.312.312,0,0,0,.076.224.292.292,0,0,0,.219.077.327.327,0,0,0,.232-.078.293.293,0,0,0,.086-.223V2.029a.23.23,0,0,0-.088-.185.347.347,0,0,0-.23-.072A.317.317,0,0,0,5.984,1.844ZM7.958,4.664a.747.747,0,0,1-.125-.471V1.252H8.55v2.7A.291.291,0,0,0,8.6,4.13a.17.17,0,0,0,.146.057.422.422,0,0,0,.2-.075.926.926,0,0,0,.221-.188V1.253h.719V4.771H9.165V4.382a1.516,1.516,0,0,1-.414.328.9.9,0,0,1-.416.112A.458.458,0,0,1,7.958,4.664Zm-4.6.107V2.88L2.392,0h.815l.525,1.908h.052L4.283,0h.823L4.164,2.791v1.98Z"/></svg>